<svg xmlns="http://www.w3.org/2000/svg" xmlns:xlink="http://www.w3.org/1999/xlink" width="1360.89" height="500" viewBox="0 0 1360.89 500"><defs><style>.a{fill:#d40026;}.b{fill:#87746a;}</style></defs><title>alex broker logo</title><path class="a" d="M108.86,240H27.77c0-11.46-.06-20.27-0.06-33.83,1.79-28.05,12.63-45.47,35.87-57.55,19.52-10.14,40.69-14.48,62.33-16.53,34.47-3.26,68.8-2.73,102,8.26,49.71,16.42,75.35,52.7,79.57,103.44,2.75,33,1.59,66.28,2,99.45,0.22,19,0,38,.07,57,0.07,13.26,4.57,17.69,17.86,17.84,7,0.08,13.95,0,21.37,0a3,3,0,0,1,3,3v67.1c0,2.8-2.14,3.39-4.44,3.39-24.29,0-50.94.16-75.23-.08a66.22,66.22,0,0,1-16.31-2.3c-17.21-4.61-26.47-16.76-26.92-34.65-0.12-5,0-10,0-16.48a50.71,50.71,0,0,0-2.81,4.47c-26.25,43-66.15,60.1-115.15,57.1-33.29-2-63-13.74-85.32-39.61C-19.83,407.49-2.78,330,60.71,298.68c32.21-15.88,66.69-22.84,102.08-25.87,19.33-1.65,38.76-2.17,59-3.24,0.36-18.28-1.09-36-11.93-51.54-6.63-9.48-16.38-14.79-27.46-17.35-17-3.93-34.12-4.14-51.09.45a30.24,30.24,0,0,0-22.42,29.14C108.86,233.35,108.86,236.42,108.86,240Zm50.46,93.26c-17.89,2.42-35.42,6.61-50.78,16.95-28,18.83-26.13,59.49,3.91,74.79,20.66,10.53,42.1,9.84,62.18-1.51,29.65-16.76,44.19-43.77,48.25-76.8,2-16.51,1.58-16.57-14.73-16.56C206.71,330.17,174,331.3,159.32,333.29Z"/><path class="a" d="M867.42,332.77H626.52c0.61,5.51,1,10.18,1.67,14.8,5.7,37.1,31.55,66.89,65,73.84,32.83,6.83,63.59-1.33,82-33,1.1-1.9,4-3.91,6-3.92,27.64-.19,55.28,0,82.92.06a6.84,6.84,0,0,1,1.86.87c-1.52,15.82-8.57,29.55-17.57,42.37-31.68,45.14-75.8,66-130.34,67.39-57.17,1.49-104.83-18.61-142.36-61.59-19.63-22.48-30.07-49.55-34.27-78.92-6.64-46.34-2.38-91.25,20.38-133,27.39-50.23,70.45-78.15,126.69-85.91,34-4.69,67.31-1.72,98.33,14.23,38.1,19.59,59.73,52.48,71.81,92.36C867.44,271.43,869.65,301.29,867.42,332.77Zm-237.2-60H780.09c2-39-28.71-71.29-66.74-71.23C668.24,201.6,637.08,232.89,630.23,272.77Z"/><path class="a" d="M1066.23,256.11c7.6-12.57,42.39-70,52.81-87.84,11-18.78,26.61-29,48.85-28.63,20.67,0.31,41.35,0,62,0a47.86,47.86,0,0,1,5.6.73c0,12.24,0,24.2,0,36.16,0,9.86-.46,19.74.13,29.56,0.44,7.21-2.22,9.11-9,8.57-7.17-.57-14.41-0.11-21.63,0-9.29.09-16.51,3.69-21.8,11.68q-28.06,42.36-56.59,84.41c-2.44,3.6-2.18,6.19.15,9.67q28,41.95,55.74,84.11c5.07,7.71,12,11.49,21.13,11.45,9.55,0,21.34.44,27.31,0.44,4,0,4.24,2.52,4.26,4,0.36,23.29.25,44.53,0.25,67.41,0,3.13-2.32,3.3-4,3.3-26.17-.29-50,0.19-76.13-1.23-16.67-.91-27.7-12.3-36-26-12.25-20.11-47.31-78.53-53.51-88.73-2.44,3.62-37.68,61.11-53,87.48-11.22,19.27-27.56,28.77-49.69,28.77-20.44,0-40.87,0-61.31.15-4.16,0-5.47-1.54-5.46-5.47,0.08-21.4.1-42.79-.05-64.19,0-4.44,1.76-5.93,6-5.86,8.65,0.13,17.31-.05,26-0.07s15.16-3.68,20-10.86c18.94-28.39,38-56.66,56.77-85.18,1.39-2.11,1.49-6.66.14-8.75-18.43-28.42-37.32-56.54-55.88-84.88-5.1-7.78-12.12-11.41-21.1-11.61-8.41-.19-16.83-0.26-25.24,0-4.41.12-6.63-1-6.59-5.93q0.25-31.73,0-63.47c0-5.29,2.76-5.69,6.84-5.66q31.73,0.25,63.47.27c18.51,0,33.21,7.46,43,23.16C1023.24,184.73,1060.08,246,1066.23,256.11Z"/><path class="a" d="M351.42,74.42V0.48c2.75-.13,5.28-0.34,7.8-0.35,25.72,0,51.45-.39,77.16.21a70.77,70.77,0,0,1,24.49,4.84c13.4,5.44,18.41,17.5,20,31.08a112,112,0,0,1,.4,13c0,115.14-.07,351.22.23,354.07,1.08,10.14,5.74,14.5,16,14.79,7.21,0.2,15.3-.22,22.47.28,1.72,0.12,3.79,2.78,3.81,4.3,0.26,22.11.14,44.22,0.05,66.33,0,1.77-.6,2.62-3,2.62-3.6,0-57.31.08-81.34-.06a83.43,83.43,0,0,1-15-1.38c-17.17-3.26-27-13.68-29.33-31a136.68,136.68,0,0,1-1.15-18c-0.07-114.9,0-350-.21-352.63-0.76-9.49-5.13-13.69-14.79-14.09-4.56-.19-9.13-0.06-13.7-0.07H351.42Z"/><path class="b" d="M1354.57,417.08c4.63-.09,6.35,1.62,6.31,6.31q-0.25,30.23,0,60.46c0,4.62-1.63,6.46-6.27,6.43-20.39-.13-40.79-0.1-61.18,0-4,0-6.42-1.27-6.38-5.72,0.18-20.15.36-40.29,0.4-60.44,0-5.2,2.11-7.19,7.39-7Z"/></svg>