<?xml version="1.0" encoding="utf-8"?>
<!-- Generator: Adobe Illustrator 22.1.0, SVG Export Plug-In . SVG Version: 6.00 Build 0)  -->
<svg version="1.1" xmlns="http://www.w3.org/2000/svg" xmlns:xlink="http://www.w3.org/1999/xlink" x="0px" y="0px"
	 viewBox="0 0 1260 140" style="enable-background:new 0 0 1260 140;" xml:space="preserve">
<style type="text/css">
	.st0{fill:#8DC63F;}
	.st1{fill:#1A1A1A;}
</style>
<g id="Background">
</g>
<g id="Layer_1">
</g>
<g id="Layer_3">
	<path class="st0" d="M741.8,68.3c-0.6-13.3-4.9-25.6-11.7-36l-49.2,24l7.6-54.2c-12.8-3.5-25.8-3.3-37.9,0l7.6,54.2l-49.2-24
		c-6.8,10.4-11.1,22.8-11.7,36l53.9,9.5l-38,39.4c8,9.9,18.5,17.7,30.7,22.3l25.7-48.4l25.7,48.4c12.1-4.6,22.7-12.4,30.7-22.3
		l-38-39.4L741.8,68.3z"/>
	<g>
		<path class="st1" d="M71,68.5c10.3-5.2,20.2-16.9,20.2-31.9c0-21-18.3-37-41.9-37H3.9c-2.2,0-3.8,1.8-3.8,3.8v132.4
			c0,2,1.6,3.8,3.8,3.8h48.1c24.2,0,43.3-16.2,43.3-38.6C95.2,82.1,82.6,72.5,71,68.5z M25.7,23.3h21.6c10.1,0,16.7,7,16.7,17
			c0,10-6.6,18-16.7,18H25.7V23.3z M50.1,115.9H25.7V80.3h24.4c9.9,0,17.5,7.4,17.5,17.4C67.6,108.1,60.1,115.9,50.1,115.9z"/>
		<path class="st1" d="M125.2,3.3c0-2,1.8-3.8,3.8-3.8h18.5c2,0,3.8,1.8,3.8,3.8v132.4c0,2-1.8,3.8-3.8,3.8H129
			c-2,0-3.8-1.8-3.8-3.8V3.3z"/>
		<path class="st1" d="M291.9,0.2h-16.8c-2,0-3.5,1.8-3.5,3.8v82.8L201,0.9c-0.9-1-1.8-1.4-3.1-1.4h-6.7c-1.8,0-3.5,1.6-3.5,3.6v132
			c0,2,1.6,3.8,3.5,3.8h16.6c2,0,3.5-1.8,3.5-3.8V49.9l71.2,88.2c0.9,1,1.8,1.4,3.1,1.4h6.4c1.8,0,3.5-1.6,3.5-3.6V4
			C295.4,2,293.7,0.2,291.9,0.2z"/>
		<path class="st1" d="M392.6,114.1c-24,0-42-20.6-42-44.9c0-24.5,17.8-45.3,41.8-45.3c8.4,0,16.8,2.8,23.9,7.5
			c1.6,1.1,3.7,0.8,5-0.6l10.9-12c1.6-1.7,1.3-4.4-0.5-5.8c-11.2-8.8-23.6-13.4-39.9-13.4c-37.5,0-67.6,31.3-67.6,70.2
			c0,38.9,30.2,69.8,67.6,69.8c14.5,0,28.6-4.6,40.4-14.2c1.7-1.4,1.9-4,0.4-5.7l-11.2-12.4c-1.3-1.4-3.5-1.7-5.1-0.6
			C409.4,111.2,401.6,114.1,392.6,114.1z"/>
		<g>
			<path class="st1" d="M462.8,4.3c0-2.6,2-4.8,4.8-4.8h17.6c2.6,0,4.8,2.2,4.8,4.8v54l50.4-56.8c0.8-1,2-2,3.8-2h20
				c3.8,0,5.8,4.2,3.2,7.2l-52.2,58.8l56,67c2,2.6,0.4,7-3.6,7h-21.8c-2,0-3.2-0.8-3.6-1.4L490,73.7v61c0,2.6-2.2,4.8-4.8,4.8h-17.6
				c-2.8,0-4.8-2.2-4.8-4.8V4.3z"/>
		</g>
	</g>
	<g>
		<path class="st1" d="M845.2,67.4c12.7-5.9,20-17.3,20-31.4c0-21.8-16.7-36.4-41.6-36.4h-42.3c-1.7,0-3.1,1.4-3.1,3.1v133.8
			c0,1.7,1.4,3.1,3.1,3.1h44.1c26,0,44.2-15.7,44.2-38.2C869.6,84.9,860.5,72.3,845.2,67.4z M788.4,9.3h35.2
			c19.1,0,30.5,10.1,30.5,27.1c0,16.7-11.4,27.5-29.1,27.5h-36.6V9.3z M826.2,130.2h-37.8V73.4h38c19.5,0,32.1,10.9,32.1,27.7
			C858.5,118.5,845.5,130.2,826.2,130.2z"/>
		<path class="st1" d="M1010.1,136.5L950.4,1.2c-0.7-1.5-2-1.6-3-1.6h-0.6c-1.2,0-2.3,0.7-2.8,1.7l-60.3,135.3l0,0
			c-0.4,1-0.3,1.7,0,2.3c0.2,0.3,0.8,0.8,1.8,0.8h5.5c1.5,0,2.7-1,3.2-2.1l15.5-35.7h74.1l15.7,35.7c0.5,1,1.7,2,3.2,2h5.1
			c1.1,0,1.8-0.3,2.2-0.8C1010.6,138,1010.3,137.1,1010.1,136.5z M913.7,93.1l33.5-76.6l32.9,76.6H913.7z"/>
		<path class="st1" d="M1134.5-0.5h-3.7c-1.6,0-2.9,1.4-2.9,3.1v118.3L1040.7,1.4c-0.8-1.3-1.8-1.8-3.4-1.8h-1.3
			c-1.9,0-3.3,1.3-3.3,3.1v133.8c0,1.7,1.3,3.1,2.9,3.1h3.5c1.6,0,2.9-1.4,2.9-3.1V17l87.9,120.7c0.8,1.3,1.8,1.8,3.4,1.8h0.6
			c1.7,0,3.5-1,3.5-3.1V2.6C1137.4,0.9,1136.1-0.5,1134.5-0.5z"/>
		<path class="st1" d="M1259.9,135.3l-71.4-67.4l69.2-64.2c0.8-0.8,1.1-2,0.7-2.9c-0.3-0.8-1.2-1.3-2.3-1.3h-5.6
			c-1.8,0-2.6,0-4.3,1.5l-67.2,62.6V3c0-2-1.4-3.5-3.5-3.5h-3.6c-2.1,0-3.5,1.4-3.5,3.5v133.4c0,1.9,1.2,3.1,3.1,3.1h4
			c2.3,0,3.5-1.1,3.5-3.1V72.7l67.5,64.7c1.6,1.6,2.8,2.1,4.8,2.1h6.4c1.4,0,2.4-0.6,2.8-1.7
			C1260.9,136.9,1260.7,135.9,1259.9,135.3z"/>
	</g>
</g>
</svg>
