<?xml version="1.0" encoding="UTF-8" standalone="no"?>
<!-- Created with Inkscape (http://www.inkscape.org/) -->
<svg
   xmlns:svg="http://www.w3.org/2000/svg"
   xmlns="http://www.w3.org/2000/svg"
   version="1.0"
   width="921.25983"
   height="212.59842"
   id="svg11222">
  <defs
     id="defs11224" />
  <path
     d="M 64.370907,62.341647 C 63.007797,58.463852 62.797679,49.636057 62.797679,49.636057 C 58.186419,47.460821 47.602916,53.852592 48.546498,61.188301 C 50.431183,75.861844 60.807049,73.451332 59.236301,78.796056 C 58.186419,80.892985 56.302089,80.682867 53.57516,80.053221 C 50.851065,79.425702 28.037483,73.340072 28.659688,48.194285 C 29.261696,23.981805 50.221065,14.235585 74.117128,14.445703 C 95.534292,14.63279 117.61441,25.142947 132.49276,44.673301 C 144.75579,60.770899 151.80555,81.818851 150.11575,102.75554 C 148.30476,125.20204 141.50551,138.80338 133.56035,148.11944 C 118.13563,166.20519 98.089371,165.29704 94.869214,165.36542 C 79.254568,165.6992 56.71949,158.44995 45.399687,159.07712 C 34.082719,159.70676 22.133625,164.10826 20.039176,165.57519 C 18.974058,166.32141 18.129334,166.30653 17.716893,165.6992 L 17.716893,163.06865 C 17.782798,162.86385 17.853664,162.65373 17.942247,162.43121 C 19.199412,159.28688 23.183152,132.24684 53.365396,127.42546 C 53.365396,127.42546 39.21768,101.22519 73.173545,82.570032 C 68.562285,74.708497 65.734372,66.219442 64.370907,62.341647 z M 67.201655,100.80531 C 67.619057,110.44771 76.424175,113.38192 76.424175,113.38192 C 81.979017,105.94239 79.464686,90.848969 73.907364,84.664481 C 72.859962,85.294127 66.781773,91.162552 67.201655,100.80531 z M 97.917166,101.01507 C 97.917166,110.65747 92.625592,117.2746 83.822954,120.83633 C 95.036103,121.36251 103.04469,110.86759 102.83457,99.757906 C 102.62445,88.648221 93.925631,76.281725 87.953387,68.316371 C 93.612048,80.892985 97.917166,91.37267 97.917166,101.01507 z M 109.12287,90.74267 C 112.87169,108.16582 105.9789,125.54113 86.134962,129.73251 C 95.987127,133.50649 115.30736,139.05885 119.07886,138.01145 C 122.85283,136.9644 132.38929,130.77956 133.22906,117.1559 C 134.06634,103.53188 128.85555,90.297631 122.35713,80.235347 C 115.85906,70.175544 103.04469,55.109757 88.79067,53.225427 C 88.79067,59.197671 105.55866,74.184796 109.12287,90.74267 z M 69.715986,28.851018 C 107.02098,28.226333 130.50213,58.04397 136.37303,67.26897 C 126.94075,41.905978 103.88161,22.517357 73.07008,21.900113 C 41.949569,21.280388 35.967404,44.106372 38.744648,53.43271 C 38.954766,52.385663 41.838309,29.319089 69.715986,28.851018 z M 112.23177,145.5392 C 90.257954,144.08999 70.763033,124.17767 40.376341,141.28972 C 69.794293,136.15476 86.137442,152.09078 112.23177,145.5392 z M 193.80543,64.575348 L 212.14665,89.591804 L 212.14665,99.560544 L 182.27835,123.40381 L 182.27835,131.51302 L 190.2437,139.47873 L 199.94457,131.84716 L 204.10795,136.142 L 204.10795,146.5005 L 180.59882,165.67901 L 157.4387,142.72901 L 157.4387,93.611331 L 193.80543,64.575348 z M 182.0987,104.93326 L 188.98405,99.201607 L 182.0987,90.092827 L 182.0987,104.93326 z M 169.43634,137.32582 L 180.23705,147.80834 L 184.58291,143.87987 L 175.46386,134.23499 L 175.46386,87.467237 L 169.43634,92.154323 L 169.43634,137.32582 z M 198.89964,91.638418 L 203.11653,88.170229 L 192.03732,74.007631 L 187.92177,77.468025 L 198.89964,91.638418 z M 284.25259,42.743262 C 284.25259,42.743262 274.45074,36.323144 267.27448,42.533144 C 261.82346,47.250703 263.60681,56.159639 263.60681,56.159639 L 250.50649,66.743143 C 249.35315,54.586057 250.29673,39.389167 261.82346,25.135506 C 269.67011,15.43216 279.03401,12.912869 285.3985,12.295625 L 295.01291,12.295625 C 309.54507,13.712239 329.65192,24.088105 347.0322,24.088105 C 361.70574,24.088105 362.33291,16.542632 365.687,16.962514 C 369.0411,17.379916 368.62121,31.006412 360.44858,37.294718 C 352.2731,43.583025 345.35515,45.049955 340.53377,45.887238 L 340.53377,121.76716 C 340.53377,121.76716 354.99755,108.66684 363.17267,89.801922 C 362.33291,144.92976 330.36767,164.63196 303.32728,164.63196 C 276.28724,164.63196 248.30575,140.53322 248.30575,106.3598 C 248.30575,72.717513 269.99893,56.786805 284.25259,42.743262 z M 356.46448,31.633577 C 329.94779,37.398183 315.06696,18.637081 290.96078,18.637081 C 277.75417,18.637081 271.99204,23.35464 269.57905,27.546018 C 275.76354,23.878341 283.30901,23.974364 287.71299,23.974364 C 310.55917,23.974364 339.32232,49.385545 356.46448,31.633577 z M 294.83858,46.30712 C 288.97015,51.755663 280.4811,72.507749 279.9574,79.843103 C 279.9574,79.843103 308.98842,56.473222 313.7035,51.651844 C 313.7035,51.651844 295.36193,46.410939 294.83858,46.30712 z M 295.25315,87.543064 C 295.25315,87.543064 284.46236,95.98393 281.0048,98.814323 C 281.0048,98.814323 283.62011,110.91543 295.25315,119.30066 L 295.25315,87.543064 z M 311.12326,102.90224 L 317.10543,98.556371 L 317.10543,56.789285 L 311.12326,61.504364 L 311.12326,102.90224 z M 322.2985,107.4072 L 318.73464,117.05208 L 306.73452,126.01168 C 312.6561,129.31263 324.3072,129.26444 328.50106,126.54035 L 328.50106,55.858458 L 322.2985,60.727671 L 322.2985,107.4072 z M 274.0383,126.57826 C 284.52047,138.84129 300.86893,142.50897 310.7211,142.50897 C 320.57362,142.50897 327.11988,139.6885 338.54314,131.51302 C 328.27074,135.28735 302.77098,139.48369 283.10173,120.16594 C 265.59744,102.97806 269.47523,75.441962 278.38417,58.883734 C 255.43134,85.924127 263.55862,114.31771 274.0383,126.57826 z M 472.17082,127.04102 C 472.17082,129.13794 472.17082,140.98109 472.17082,140.98109 L 448.58834,165.61062 L 425.53204,139.61763 L 433.54806,130.39511 C 433.54806,130.39511 433.54806,47.809836 433.54806,43.302041 C 433.54806,38.7946 429.11645,32.346845 426.22263,31.327435 L 448.75523,15.500546 C 456.97357,21.713026 458.75444,33.65964 458.75444,39.844482 C 458.75444,46.02649 458.75444,133.01574 458.75444,133.01574 C 458.75444,133.01574 466.19609,126.09743 468.29054,123.89704 L 472.17082,127.04102 z M 446.80003,40.997829 C 446.80003,43.721923 446.80003,130.71153 446.80003,130.71153 L 444.8094,134.87491 L 450.68031,141.16322 L 455.13743,137.13377 C 455.13743,137.13377 452.62558,133.89838 452.62558,131.70046 C 452.62558,129.50468 452.62558,50.220348 452.62558,41.101648 C 452.62558,31.982593 450.16192,26.42775 447.22487,22.656609 L 442.50235,25.954719 C 446.90385,29.099049 446.80003,38.2709 446.80003,40.997829 L 446.80003,40.997829 z M 593.43696,81.68208 L 599.98853,76.180387 L 602.9557,80.111332 L 595.61999,94.696292 L 595.61999,130.50389 C 595.61999,142.90617 611.99078,153.07192 606.45117,173.03739 C 603.74231,185.09031 585.11763,187.65034 580.42275,188.05995 C 574.39771,188.58365 564.00377,193.29873 561.47172,196.44271 C 556.14471,189.28168 549.67924,185.09031 541.82019,183.69176 C 539.81184,175.04574 546.27448,165.98515 558.76286,165.98515 C 571.25338,165.98515 578.23971,174.25912 578.23971,174.25912 C 580.77424,173.21208 587.23723,171.55239 587.23723,166.05105 C 587.23723,160.54688 581.64696,154.8705 575.88235,149.6296 L 558.23916,163.95412 L 538.59011,145.43822 L 538.59011,96.790741 L 578.4144,62.119127 L 593.43696,81.68208 L 593.43696,81.68208 z M 565.43314,178.95897 L 568.89601,176.92263 C 564.4846,169.96393 558.96767,171.44645 555.78046,172.23306 C 558.44397,173.4144 564.2518,177.29964 565.43314,178.95897 z M 558.28204,87.325505 L 552.28712,92.786804 L 552.28712,133.31161 L 561.707,142.91857 L 565.83778,139.23814 L 558.28204,130.85291 L 558.28204,87.325505 z M 564.52747,128.01755 L 571.0181,133.99724 L 571.0181,92.576686 L 564.52747,84.629048 L 564.52747,128.01755 z M 582.92963,89.7183 C 582.92963,89.71582 582.92963,119.67271 582.92963,131.02759 C 582.92963,144.82842 598.32672,152.68747 598.32672,162.96483 C 603.30719,153.88157 589.157,142.1192 589.157,131.37661 C 589.157,125.96102 589.2431,88.843103 589.2431,88.843103 L 576.66897,71.637513 L 572.10093,75.320426 L 582.92963,89.7183 L 582.92963,89.7183 z M 635.01058,62.556726 L 644.26853,72.249796 L 658.67916,62.20523 L 667.32518,72.338379 L 675.3614,67.097119 L 677.98168,69.191568 L 677.98168,83.354166 L 653.23062,102.15354 L 642.6092,89.736016 L 642.6092,128.05794 L 647.15243,132.51224 L 653.26357,127.62035 L 655.7981,130.24098 L 655.7981,144.39082 L 632.91365,164.12846 L 613.17601,144.65125 C 613.17601,144.65125 616.84404,140.37413 616.84404,136.70361 C 616.84404,133.03594 616.84404,85.089324 616.84404,85.089324 L 613.69971,81.856765 L 611.24881,83.139087 L 609.73333,81.267158 L 635.01058,62.556726 z M 629.91885,79.52456 L 629.91885,134.63468 L 636.38184,141.09731 L 640.86412,137.22731 L 635.97188,131.90031 L 635.97188,77.053103 L 630.9053,70.795269 L 625.85396,74.655348 L 629.91885,79.52456 z M 658.12038,79.423221 L 661.5627,76.615505 L 655.82077,69.507631 L 652.36818,72.535387 L 658.12038,79.423221 z M 676.19089,91.377631 L 711.51802,62.119127 L 731.12136,78.525347 L 734.17959,75.636844 L 738.26467,79.054009 L 733.35258,91.638418 L 733.35258,130.67857 L 738.33058,135.13287 L 742.69912,131.20192 L 746.54113,135.48188 L 746.54113,147.09755 L 727.15251,163.77944 L 714.13829,150.24153 L 697.28172,164.03987 L 676.19089,142.1192 L 676.19089,91.377631 z M 701.78172,130.38767 L 707.32664,135.80326 L 707.32664,89.791646 L 701.78172,84.639324 L 701.78172,130.38767 z M 693.7455,84.092946 L 688.17329,89.009993 L 688.17329,136.23058 L 698.21786,146.33857 L 702.60908,142.38247 L 693.7455,133.34456 L 693.7455,84.092946 z M 719.3544,85.767158 L 719.3544,135.24661 L 727.95719,144.28452 L 732.04227,140.19944 L 725.84254,133.29885 L 725.84254,82.992395 L 710.54644,69.942749 L 705.84412,74.308812 L 719.3544,85.767158 z M 838.33262,46.572868 L 868.46136,18.100979 L 880.33994,18.100979 C 883.48427,23.863105 896.5566,29.281175 903.54293,27.009561 L 903.54293,29.979207 L 884.70849,50.589561 C 880.16561,50.589561 868.81321,46.049167 866.5416,44.650269 L 866.5416,62.293458 L 883.13526,62.293458 L 883.13526,68.407434 L 871.95719,79.585151 L 866.5416,79.585151 L 866.5416,142.29389 L 853.87888,154.95909 L 853.87888,187.53377 L 838.41872,200.30279 L 838.41872,79.41082 L 819.0301,79.41082 L 819.0301,74.695741 L 831.95573,62.293458 L 838.33262,62.293458 L 838.33262,46.572868 z M 872.3923,21.857239 L 868.66404,25.438813 C 868.66404,25.438813 874.72699,33.394246 885.4951,32.511254 C 885.4951,32.511254 878.07116,29.890624 872.3923,21.857239 z M 853.26695,146.31058 L 858.52061,140.50806 L 858.52061,33.821569 L 853.26695,39.864679 L 853.26695,146.31058 z M 405.53539,64.575348 L 423.87661,89.591804 L 423.87661,99.560544 L 394.00582,123.40381 L 394.00582,131.51302 L 401.97117,139.47873 L 411.67452,131.84716 L 415.83543,136.142 L 415.83543,146.5005 L 392.33125,165.67901 L 369.16866,142.72901 L 369.16866,93.611331 L 405.53539,64.575348 z M 393.82866,104.93326 L 400.71401,99.201607 L 393.82866,90.092827 L 393.82866,104.93326 z M 381.16629,137.32582 L 391.967,147.80834 L 396.31287,143.87987 L 387.19381,134.23499 L 387.19381,87.467237 L 381.16629,92.154323 L 381.16629,137.32582 z M 410.6296,91.638418 L 414.84649,88.170229 L 403.76728,74.007631 L 399.64925,77.468025 L 410.6296,91.638418 z M 514.60192,64.575348 L 532.94349,89.591804 L 532.94349,99.560544 L 503.07271,123.40381 L 503.07271,131.51302 L 511.03806,139.47873 L 520.74105,131.84716 L 524.90231,136.142 L 524.90231,146.5005 L 501.39566,165.67901 L 478.23554,142.72901 L 478.23554,93.611331 L 514.60192,64.575348 z M 502.89554,104.93326 L 509.7809,99.201607 L 502.89554,90.092827 L 502.89554,104.93326 z M 490.23283,137.32582 L 501.03389,147.80834 L 505.3794,143.87987 L 496.2607,134.23499 L 496.2607,87.467237 L 490.23283,92.154323 L 490.23283,137.32582 z M 519.69649,91.638418 L 523.91302,88.170229 L 512.83381,74.007631 L 508.71578,77.468025 L 519.69649,91.638418 z M 753.59089,91.377631 L 788.9205,62.119127 L 808.52136,78.525347 L 811.57959,75.636844 L 815.66467,79.054009 L 810.75258,91.638418 L 810.75258,130.67857 L 815.73057,135.13287 L 820.09912,131.20192 L 823.94112,135.48188 L 823.94112,147.09755 L 804.55286,163.77944 L 791.53829,150.24153 L 774.68172,164.03987 L 753.59089,142.1192 L 753.59089,91.377631 z M 779.17924,130.38767 L 784.72664,135.80326 L 784.72664,89.791646 L 779.17924,84.639324 L 779.17924,130.38767 z M 771.1455,84.092946 L 765.57329,89.009993 L 765.57329,136.23058 L 775.61786,146.33857 L 780.01156,142.38247 L 771.1455,133.34456 L 771.1455,84.092946 z M 796.75191,85.767158 L 796.75191,135.24661 L 805.35471,144.28452 L 809.44227,140.19944 L 803.24254,133.29885 L 803.24254,82.992395 L 787.94644,69.942749 L 783.24412,74.308812 L 796.75191,85.767158 z "
     style="fill:black;fill-opacity:1;fill-rule:evenodd"
     id="_79475448" />
</svg>
