<?xml version="1.0" encoding="utf-8"?>
<!-- Generator: Adobe Illustrator 21.1.0, SVG Export Plug-In . SVG Version: 6.00 Build 0)  -->
<svg version="1.1" id="Layer_1" xmlns="http://www.w3.org/2000/svg" xmlns:xlink="http://www.w3.org/1999/xlink" x="0px" y="0px"
	 viewBox="0 0 150 150" style="enable-background:new 0 0 150 150;" xml:space="preserve">
<style type="text/css">
	.st0{fill:#008CD1;}
</style>
<g>
	<path class="st0" d="M81.5,141c-3.2,0-6.4,0-9.6,0c-0.1-0.3-0.4-0.2-0.7-0.2c-3.7-0.3-7.4-1-11-1.9c-24.9-6.5-43.3-27.3-47-52.8
		c-0.2-1.2-0.1-2.5-0.6-3.6c0-3.4,0-6.7,0-10.1c0.4-0.2,0.2-0.5,0.2-0.8c0.3-2.4,0.6-4.9,1.1-7.3C19.7,38,41.2,18.2,67.9,14.5
		c1.2-0.2,2.5-0.1,3.7-0.6c3.3,0,6.6,0,9.9,0c0.1,0.3,0.4,0.2,0.7,0.2c3.8,0.3,7.6,1,11.3,2c24.8,6.7,43,27.3,46.7,52.7
		c0.2,1.3,0.1,2.6,0.6,3.8c0,3.2,0,6.4,0,9.6c-0.3,0.2-0.2,0.5-0.2,0.8c-0.2,2.5-0.6,5-1.1,7.5c-5.7,26.4-27.1,46.2-53.9,49.9
		C84.2,140.6,82.8,140.6,81.5,141z M56.3,70.1c-1.5-4.6-2.9-5.6-7.8-5.6c-3.8,0-7.6,0-11.4,0c-2.1,0-2.1,0-2.1-2.1
		c0-1.4,0-2.9,0-4.3c0-0.7-0.2-1-0.9-1c-1.7,0.1-3.4,0.1-5,0c-0.9,0-1,0.3-1,1.1c0,1.8,0,3.6,0,5.5c0,0.6-0.2,0.9-0.8,0.8
		c-0.7-0.1-1.5,0-2.2,0c-0.6,0-0.8,0.1-0.7,0.7c0,0.9,0,1.9,0,2.8c0,2.5,0,2.5,2.5,2.5c0.9,0,1.2,0.2,1.2,1.2
		c-0.1,4.1-0.1,8.3,0,12.4c0.1,3.2,1.3,5.9,4.1,7.6c2.8,1.8,5.9,2.1,9.2,1.9c0.5,0,0.7-0.2,0.7-0.8c0-1.4-0.1-2.9,0-4.3
		c0.1-0.9-0.2-1.1-1.1-1.1C37,87.5,35,85.6,35,81.8c0-3.4,0-6.9,0-10.3c0-0.9,0.3-1,1.1-1c4.1,0,8.1,0.1,12.2,0c1,0,1.2,0.3,1.2,1.3
		c0,6.9,0,13.7,0,20.6c0,0.8,0.2,1.1,1.1,1.1c1.6-0.1,3.3-0.1,4.9,0c0.8,0,1.1-0.2,1.1-1.1c-0.1-3.8,0-7.6,0-11.4
		c0-2.3,0.5-4.5,1.7-6.6c1-1.7,2.4-3,4.5-3.4c2.7-0.6,4.4,0.6,4.8,3.3c0.1,0.6,0.1,1.3,0.1,1.9c0,5.4,0,10.8,0,16.2c0,0.7,0.2,1,1,1
		c1.7-0.1,3.4-0.1,5.1,0c0.8,0,1-0.2,1-1c0-4,0-7.9,0-11.9c0-2,0.4-3.8,1.3-5.6c1-2,2.5-3.4,4.7-3.9c2.8-0.6,4.5,0.6,4.9,3.4
		c0.1,0.9,0.2,1.8,0.2,2.7c0,3,0,6,0,9c0,3.9,2.4,7,6.1,8.1c4.4,1.3,8.1,0.2,11.2-3.1c0.3-0.3,0.5-0.7,1.1-0.3
		c2.3,1.5,4.9,2,7.6,1.8c2.8-0.2,5.2-1.2,7-3.7c0,1.4,0,2.6,0,3.8c-0.1,3.7-2.1,6-5.8,6.6c-3.2,0.5-6.3-0.1-9.2-1.3
		c-0.8-0.3-1-0.1-1.3,0.6c-0.4,1.2-0.9,2.4-1.4,3.6c-0.4,0.8-0.3,1.1,0.6,1.5c4.1,1.8,8.4,2.4,12.9,1.6c5.3-1,9.3-3.6,10.8-9.1
		c0.4-1.6,0.5-3.2,0.5-4.8c0-6.7,0-13.4,0-20c0-0.7,0.1-1.1,0.9-1c0.6,0.1,1.1,0,1.7,0c0.6,0,0.8-0.2,0.7-0.7c0-1.5,0-3.1,0-4.6
		c0-0.5-0.1-0.7-0.7-0.7c-1,0-2.1,0-3.1,0c-2.6,0-4.5,1.1-5.7,3.5c-0.1,0.2-0.1,0.3-0.4,0.4c-0.7-0.9-1.5-1.7-2.5-2.3
		c-5.7-3.4-13.8-1.3-16.8,4.5c-2.6,5-2.6,10.2-0.3,15.3c0.3,0.7,0.3,1.3-0.2,1.8c-1,1.2-2.7,1.7-4.4,1.2c-1.3-0.4-2.1-1.4-2.2-3.1
		c-0.1-0.8,0-1.6,0-2.4c-0.1-3.6,0.2-7.3-0.2-10.9c-0.4-4.1-2.6-6.8-6.2-7.7c-4.7-1.2-9.7,0.7-12.3,4.8c-0.1,0.2-0.1,0.4-0.4,0.4
		C71.4,62.7,60.6,62.5,56.3,70.1z"/>
	<path class="st0" d="M119,78.9c-0.1,1.3-0.2,2.4-0.5,3.4c-0.7,2.4-2.3,4-4.8,4.4c-2.8,0.4-5.3-0.2-6.8-2.8c-2-3.3-2.2-6.9-0.4-10.4
		c1.3-2.7,3.8-3.3,6.5-3c2.6,0.2,4.5,1.4,5.4,4C118.9,76,119,77.5,119,78.9z"/>
</g>
</svg>
